# xmcd
#
# Track frame offsets:
#	150
#	17108
#	34894
#	59675
#	80782
#	101097
#	132613
#	150307
#
# Disc length: 2106 seconds
# Revision: 0
# Processed by: cddbd v1.5.2PL0 Copyright (c) Steve Scherf et al.
# Submitted via: dBpowerAMP V12.0
#
DISCID=6c083808
DTITLE=Black Dog Blues - Hair of the Dog
DYEAR=2011
DGENRE=Blues
TTITLE0=Born in Chicago
TTITLE1=Boom Boom
TTITLE2=She Moves Me
TTITLE3=Bridge to Better Days
TTITLE4=Tore Down
TTITLE5=Kind Hearted Woman Blues
TTITLE6=Lonesome Road Blues
TTITLE7=Bye Bye Bird
EXTD=
EXTT0=
EXTT1=
EXTT2=
EXTT3=
EXTT4=
EXTT5=
EXTT6=
EXTT7=
PLAYORDER=
